# xmcd
#
# Track frame offsets: 
#        150
#        20965
#        32820
#        48115
#        59097
#        74240
#        88110
#        103487
#        118937
#        133075
#
# Disc length: 1947 seconds
#
# Revision: 0
# Processed by: cddbd v1.4PL0 Copyright (c) Steve Scherf et al.
# Submitted via: ExactAudioCopy v0.90b4
#
DISCID=a407990a
DTITLE=Various Artist - Tom Sawyer Originial MGM Motion Picture Sound
DTITLE=track
DYEAR=2000
DGENRE=Country
TTITLE0=Suite From Tom Sawyer
TTITLE1=Marty Stuart - Leave Your Love Light On
TTITLE2=Lee Ann Womak and Mark Wills - Never, Ever and Forever
TTITLE3=Ray Stevens - Injurin' Joe
TTITLE4=Lee Ann Womak and Alecia Elliott - One Dream
TTITLE5=Mark Nessler - Hook, Line and Sinker
TTITLE6=Bryan White and Rebecca Lynn Howard - Light At The End Of The Tu
TTITLE6=nnel
TTITLE7=Rhett Akins and Mark Wills - Friends For Life
TTITLE8=Charlie Daniels - Can't Keep A Country Boy Down
TTITLE9=Lee Ann Womak and Rhett Akins - Light At The End Of The Tunnel (
TTITLE9=Reprise)
EXTD=
EXTT0=
EXTT1=
EXTT2=
EXTT3=
EXTT4=
EXTT5=
EXTT6=
EXTT7=
EXTT8=
EXTT9=
PLAYORDER=
